<svg
  viewBox="0 0 48 48"
  xmlns="http://www.w3.org/2000/svg"
>
  <path
    fill="#EA4335"
    d="M24 9.5c3.54 0 6.7 1.22 9.2 3.6l6.9-6.9C35.9 2.4 30.4 0 24 0 14.6 0 6.5 5.4 2.6 13.3l8.1 6.3C12.6 13.2 17.9 9.5 24 9.5z"
  />
  <path
    fill="#4285F4"
    d="M46.1 24.5c0-1.6-.1-2.8-.4-4H24v7.6h12.7c-.6 3-2.3 5.6-4.9 7.3l7.5 5.8c4.4-4.1 6.8-10.1 6.8-16.7z"
  />
  <path
    fill="#FBBC05"
    d="M10.7 28.4c-.5-1.5-.8-3.1-.8-4.9s.3-3.4.8-4.9l-8.1-6.3C.9 16.1 0 20 0 24s.9 7.9 2.6 11.7l8.1-6.3z"
  />
  <path
    fill="#34A853"
    d="M24 48c6.4 0 11.9-2.1 15.9-5.8l-7.5-5.8c-2.1 1.4-4.8 2.2-8.4 2.2-6.1 0-11.4-3.7-13.3-8.9l-8.1 6.3C6.5 42.6 14.6 48 24 48z"
  />
</svg>
